<svg width="176" height="28" viewBox="0 0 176 28" fill="none" xmlns="http://www.w3.org/2000/svg">
<path d="M7.63098 11.5997L5.72231 9.38428C4.57711 9.2612 2.66607 9.38468 3.05017 11.9689L3.43165 15.2921C3.43165 17.1383 3.81339 17.8768 4.95859 17.8768L5.72231 24.8923C6.10167 26 6.10379 26 7.63072 26M7.57851 11.5997L9.48718 9.38428C10.6324 9.2612 12.5434 9.38468 12.1593 11.9689L11.7778 15.2921C11.7778 17.1383 11.3961 17.8768 10.2509 17.8768L9.48718 24.8923C9.10782 26 9.1057 26 7.57877 26M9.15554 5.90439C9.15554 6.60338 8.4719 7.17002 7.6286 7.17002C6.7853 7.17002 6.10167 6.60338 6.10167 5.90439M14.3499 5.81936C14.9488 4.84342 15.8431 4.06897 16.9119 3.60081C17.9807 3.13265 19.1724 2.99338 20.3258 3.20184C21.4791 3.4103 22.5384 3.95643 23.3603 4.76633C24.1822 5.57623 24.7271 6.6108 24.9211 7.73005C25.1152 8.84931 24.9491 9.99921 24.4454 11.0242C23.9416 12.0491 23.1245 12.8997 22.1046 13.4607C21.0846 14.0217 19.9112 14.2661 18.7429 14.1608C17.5747 14.0556 16.4681 13.6057 15.5728 12.8722M19.2715 5.69237V9.38474L21.1801 11.2309M17.6777 18.6332C17.4592 18.3216 17.1339 18.0637 16.7413 17.8906C16.3487 17.7175 15.9055 17.6367 15.4655 17.658C15.0254 17.6792 14.6073 17.8016 14.2618 18.0103C13.9163 18.2191 13.6582 18.5052 13.5188 18.834C13.3793 19.1628 13.3645 19.5203 13.4761 19.8632C13.5878 20.206 13.821 20.5195 14.1477 20.7657C14.3127 20.8813 14.8182 21.1453 15.5206 21.2765C16.1541 21.3337 17.0572 21.6639 17.3495 22.0318M17.0508 21.8034C17.3884 22.0697 17.6337 22.4054 17.7571 22.7699C17.8805 23.1345 17.8766 23.5122 17.7461 23.8573C17.6155 24.2025 17.3637 24.5003 17.0213 24.7147C16.6789 24.9291 16.2605 25.0509 15.8167 25.0654C15.373 25.0798 14.9229 24.9863 14.521 24.7962C14.1192 24.606 13.7827 24.3274 13.5523 23.994M15.4527 24.5552V25.9398M15.8285 16.7089V18.0935M24.3699 18.6332C24.1514 18.3216 23.8262 18.0637 23.4336 17.8906C23.041 17.7175 22.5978 17.6367 22.1577 17.658C21.7176 17.6792 21.2996 17.8016 20.9541 18.0103C20.6086 18.2191 20.3505 18.5052 20.211 18.834C20.0716 19.1628 20.0568 19.5203 20.1684 19.8632C20.28 20.206 20.5133 20.5195 20.8399 20.7657C21.0049 20.8813 21.5105 21.1453 22.2129 21.2765C22.8463 21.3337 23.7494 21.6639 24.0418 22.0318M23.7431 21.8034C24.0806 22.0697 24.326 22.4054 24.4493 22.7699C24.5727 23.1345 24.5689 23.5122 24.4383 23.8573C24.3077 24.2025 24.056 24.5003 23.7136 24.7147C23.3712 24.9291 22.9527 25.0509 22.509 25.0654C22.0652 25.0798 21.6152 24.9863 21.2133 24.7962C20.8114 24.606 20.4749 24.3274 20.2446 23.994M22.145 24.5552V25.9398M22.5208 16.7089V18.0935M10.6825 5.32313C10.6825 7.15845 9.31521 8.64626 7.6286 8.64626C5.942 8.64626 4.57474 7.15845 4.57474 5.32313C4.57474 3.48782 5.942 2 7.6286 2C9.31521 2 10.6825 3.48782 10.6825 5.32313Z" stroke="white" stroke-width="1.25" stroke-linecap="round"/>
<mask id="path-2-outside-1_2838_87010" maskUnits="userSpaceOnUse" x="41" y="1" width="134" height="26" fill="black">
<rect fill="white" x="41" y="1" width="134" height="26"/>
<path d="M44.5148 10.2511H53.3458V3.24365H55.8606V20.3916H53.3458V13.3842H44.5148V20.3916H42V3.24365H44.5148V10.2511Z"/>
<path d="M70.4551 16.1106C70.4551 16.5411 70.3939 17.0075 70.2713 17.5097C70.1488 18.004 69.9489 18.4664 69.6717 18.8969C69.4008 19.3194 69.0429 19.6741 68.598 19.9611C68.1595 20.2481 67.6243 20.3916 66.9924 20.3916H62.456C62.1078 20.3916 61.7306 20.3159 61.3243 20.1644C60.9246 20.013 60.5506 19.7698 60.2023 19.435C59.8606 19.0922 59.5736 18.6497 59.3415 18.1076C59.1094 17.5575 58.9933 16.8919 58.9933 16.1106C58.9933 15.6801 59.0546 15.2138 59.1771 14.7115C59.2996 14.2093 59.4963 13.7469 59.7671 13.3244C60.0444 12.8939 60.4022 12.5351 60.8407 12.2481C61.2857 11.9611 61.8241 11.8176 62.456 11.8176H66.9924V14.7833H62.456C62.1143 14.7833 61.8499 14.9148 61.6629 15.1779C61.4759 15.433 61.3824 15.7519 61.3824 16.1345C61.3824 16.5411 61.4888 16.86 61.7016 17.0912C61.9208 17.3144 62.1787 17.426 62.4754 17.426H66.9924C67.3342 17.426 67.5985 17.2985 67.7855 17.0433C67.9725 16.7882 68.066 16.4694 68.066 16.0867V11.7459C68.066 11.3393 67.9629 11.0164 67.7565 10.7773C67.5566 10.5381 67.3019 10.4185 66.9924 10.4185H61.4694V7.46487H66.9924C67.3406 7.46487 67.7146 7.54061 68.1144 7.69208C68.5206 7.84355 68.8946 8.09068 69.2364 8.43348C69.5846 8.76831 69.8748 9.21076 70.1069 9.76084C70.3391 10.3029 70.4551 10.9646 70.4551 11.7459V16.1106Z"/>
<path d="M85.3205 16.0269C85.3205 16.561 85.2657 17.0433 85.1561 17.4738C85.0464 17.8964 84.9013 18.2711 84.7208 18.5979C84.5402 18.9168 84.3307 19.1918 84.0921 19.423C83.8535 19.6462 83.602 19.8296 83.3376 19.9731C83.0797 20.1166 82.8185 20.2242 82.5542 20.296C82.2898 20.3597 82.0383 20.3916 81.7997 20.3916H77.2634V17.2825H81.7997C82.135 17.2825 82.3865 17.1749 82.5542 16.9596C82.7218 16.7444 82.8057 16.4335 82.8057 16.0269V11.8416C82.8057 11.4111 82.7186 11.0922 82.5445 10.8849C82.3768 10.6776 82.1286 10.574 81.7997 10.574H77.2827C76.9409 10.574 76.683 10.6816 76.5089 10.8969C76.3348 11.1041 76.2477 11.4111 76.2477 11.8176V24.4335H73.7329V11.8176C73.7329 11.2835 73.7877 10.8052 73.8973 10.3827C74.007 9.96014 74.1521 9.58944 74.3326 9.27055C74.5196 8.9437 74.7324 8.66866 74.971 8.44544C75.2096 8.21425 75.4578 8.02691 75.7158 7.88341C75.9801 7.73991 76.2445 7.63627 76.5089 7.5725C76.7797 7.50075 77.0312 7.46487 77.2634 7.46487H81.7997C82.2318 7.46487 82.6187 7.53264 82.9604 7.66816C83.3022 7.80369 83.602 7.98306 83.8599 8.20628C84.1243 8.4295 84.3468 8.68859 84.5273 8.98356C84.7143 9.27853 84.8659 9.58944 84.9819 9.91629C85.098 10.2352 85.1818 10.558 85.2334 10.8849C85.2915 11.2118 85.3205 11.5227 85.3205 11.8176V16.0269Z"/>
<path d="M100.186 16.0269C100.186 16.561 100.131 17.0433 100.021 17.4738C99.9118 17.8964 99.7667 18.2711 99.5862 18.5979C99.4056 18.9168 99.196 19.1918 98.9574 19.423C98.7189 19.6462 98.4674 19.8296 98.203 19.9731C97.9451 20.1166 97.6839 20.2242 97.4195 20.296C97.1551 20.3597 96.9037 20.3916 96.6651 20.3916H92.1287V17.2825H96.6651C97.0004 17.2825 97.2519 17.1749 97.4195 16.9596C97.5872 16.7444 97.671 16.4335 97.671 16.0269V11.8416C97.671 11.4111 97.584 11.0922 97.4099 10.8849C97.2422 10.6776 96.9939 10.574 96.6651 10.574H92.1481C91.8063 10.574 91.5484 10.6816 91.3743 10.8969C91.2002 11.1041 91.1131 11.4111 91.1131 11.8176V24.4335H88.5983V11.8176C88.5983 11.2835 88.6531 10.8052 88.7627 10.3827C88.8723 9.96014 89.0174 9.58944 89.198 9.27055C89.385 8.9437 89.5978 8.66866 89.8363 8.44544C90.0749 8.21425 90.3232 8.02691 90.5811 7.88341C90.8455 7.73991 91.1099 7.63627 91.3743 7.5725C91.6451 7.50075 91.8966 7.46487 92.1287 7.46487H96.6651C97.0971 7.46487 97.484 7.53264 97.8258 7.66816C98.1675 7.80369 98.4674 7.98306 98.7253 8.20628C98.9897 8.4295 99.2122 8.68859 99.3927 8.98356C99.5797 9.27853 99.7312 9.58944 99.8473 9.91629C99.9634 10.2352 100.047 10.558 100.099 10.8849C100.157 11.2118 100.186 11.5227 100.186 11.8176V16.0269Z"/>
<path d="M115.051 21.6353C115.051 22.1694 114.996 22.6477 114.887 23.0703C114.777 23.5007 114.632 23.8754 114.452 24.1943C114.271 24.5212 114.061 24.7962 113.823 25.0194C113.584 25.2506 113.333 25.438 113.068 25.5815C112.81 25.725 112.549 25.8286 112.285 25.8924C112.021 25.9641 111.769 26 111.53 26H106.994V22.8909H111.53C111.866 22.8909 112.117 22.7833 112.285 22.568C112.453 22.3528 112.536 22.0419 112.536 21.6353V7.46487H115.051V21.6353ZM111.53 20.3916H106.994C106.633 20.3916 106.246 20.3159 105.833 20.1644C105.427 20.013 105.047 19.7658 104.692 19.423C104.337 19.0722 104.044 18.6218 103.812 18.0717C103.58 17.5137 103.464 16.8321 103.464 16.0269V7.46487H105.978V16.0269C105.978 16.4335 106.066 16.7444 106.24 16.9596C106.414 17.1749 106.672 17.2825 107.013 17.2825H111.53V20.3916Z"/>
<path d="M130.584 16.0269C130.584 16.6487 130.497 17.2267 130.323 17.7608C130.149 18.295 129.904 18.7573 129.588 19.148C129.278 19.5386 128.907 19.8455 128.475 20.0688C128.043 20.284 127.573 20.3916 127.063 20.3916H117.845V17.2825H127.063C127.373 17.2825 127.615 17.1749 127.789 16.9596C127.963 16.7364 128.05 16.4255 128.05 16.0269V3.24365H130.584V16.0269Z"/>
<path d="M145.691 16.0269C145.691 16.561 145.636 17.0433 145.527 17.4738C145.417 17.8964 145.272 18.2711 145.091 18.5979C144.911 18.9168 144.701 19.1918 144.463 19.423C144.224 19.6462 143.973 19.8296 143.708 19.9731C143.45 20.1166 143.186 20.2242 142.915 20.296C142.651 20.3597 142.399 20.3916 142.161 20.3916H137.624C137.276 20.3916 136.896 20.3159 136.483 20.1644C136.07 20.013 135.687 19.7658 135.332 19.423C134.984 19.0722 134.69 18.6218 134.452 18.0717C134.22 17.5137 134.104 16.8321 134.104 16.0269V11.8176C134.104 11.0204 134.22 10.3468 134.452 9.79671C134.69 9.23866 134.984 8.78824 135.332 8.44544C135.687 8.09467 136.07 7.84355 136.483 7.69208C136.896 7.54061 137.276 7.46487 137.624 7.46487H142.161C142.806 7.46487 143.354 7.60837 143.805 7.89537C144.256 8.18236 144.621 8.54509 144.898 8.98356C145.175 9.41405 145.375 9.8844 145.498 10.3946C145.627 10.9048 145.691 11.3792 145.691 11.8176V16.0269ZM143.176 11.8416C143.176 11.4111 143.089 11.0922 142.915 10.8849C142.741 10.6776 142.49 10.574 142.161 10.574H137.644C137.308 10.574 137.054 10.6816 136.88 10.8969C136.705 11.1041 136.618 11.4111 136.618 11.8176V16.0269C136.618 16.4335 136.705 16.7444 136.88 16.9596C137.054 17.1749 137.308 17.2825 137.644 17.2825H142.161C142.502 17.2825 142.757 17.1749 142.925 16.9596C143.092 16.7444 143.176 16.4335 143.176 16.0269V11.8416Z"/>
<path d="M160.556 16.0269C160.556 16.3219 160.527 16.6328 160.469 16.9596C160.418 17.2865 160.334 17.6134 160.218 17.9402C160.102 18.2591 159.95 18.566 159.763 18.861C159.583 19.156 159.36 19.419 159.096 19.6502C158.838 19.8734 158.538 20.0528 158.196 20.1883C157.855 20.3239 157.468 20.3916 157.036 20.3916H152.499C152.261 20.3916 152.009 20.3597 151.745 20.296C151.481 20.2242 151.216 20.1166 150.952 19.9731C150.694 19.8296 150.446 19.6462 150.207 19.423C149.968 19.1918 149.756 18.9168 149.569 18.5979C149.388 18.2711 149.243 17.8964 149.133 17.4738C149.024 17.0433 148.969 16.561 148.969 16.0269V2H151.484V16.0269C151.484 16.4096 151.58 16.7165 151.774 16.9477C151.967 17.1709 152.209 17.2825 152.499 17.2825H157.036C157.352 17.2825 157.597 17.1669 157.771 16.9357C157.951 16.7045 158.042 16.4016 158.042 16.0269V11.8176C158.042 11.427 157.948 11.1241 157.761 10.9088C157.574 10.6856 157.332 10.574 157.036 10.574H152.499V7.46487H157.036C157.274 7.46487 157.526 7.50075 157.79 7.5725C158.055 7.63627 158.316 7.73991 158.574 7.88341C158.838 8.02691 159.09 8.21425 159.328 8.44544C159.567 8.66866 159.776 8.9437 159.957 9.27055C160.137 9.58944 160.282 9.96014 160.392 10.3827C160.502 10.8052 160.556 11.2835 160.556 11.8176V16.0269Z"/>
<path d="M174 16.0269C174 16.561 173.945 17.0433 173.836 17.4738C173.726 17.8964 173.581 18.2711 173.4 18.5979C173.22 18.9168 173.01 19.1918 172.772 19.423C172.533 19.6462 172.282 19.8296 172.017 19.9731C171.759 20.1166 171.495 20.2242 171.224 20.296C170.96 20.3597 170.708 20.3916 170.47 20.3916H163.66V17.2825H170.45C170.792 17.2825 171.05 17.1749 171.224 16.9596C171.398 16.7444 171.485 16.4335 171.485 16.0269C171.453 15.1978 171.114 14.7833 170.47 14.7833H166.572C166.017 14.7833 165.546 14.6637 165.159 14.4245C164.773 14.1854 164.457 13.8864 164.212 13.5277C163.973 13.1689 163.799 12.7823 163.689 12.3677C163.586 11.9532 163.534 11.5665 163.534 11.2078C163.534 10.5142 163.634 9.93224 163.834 9.46188C164.034 8.98356 164.286 8.59691 164.589 8.30194C164.892 8.00698 165.221 7.79572 165.575 7.66816C165.93 7.53264 166.262 7.46487 166.572 7.46487H172.752V10.574H166.591C166.462 10.574 166.359 10.5939 166.281 10.6338C166.21 10.6657 166.156 10.7135 166.117 10.7773C166.085 10.8331 166.065 10.8969 166.059 10.9686C166.052 11.0324 166.049 11.0962 166.049 11.1599C166.056 11.2875 166.075 11.3871 166.107 11.4589C166.14 11.5306 166.178 11.5825 166.223 11.6144C166.275 11.6462 166.33 11.6662 166.388 11.6741C166.452 11.6741 166.514 11.6741 166.572 11.6741H170.47C171.114 11.6741 171.663 11.8176 172.114 12.1046C172.565 12.3916 172.93 12.7544 173.207 13.1928C173.484 13.6233 173.684 14.0937 173.807 14.6039C173.936 15.1141 174 15.5884 174 16.0269Z"/>
</mask>
<path d="M44.5148 10.2511H53.3458V3.24365H55.8606V20.3916H53.3458V13.3842H44.5148V20.3916H42V3.24365H44.5148V10.2511Z" fill="white"/>
<path d="M70.4551 16.1106C70.4551 16.5411 70.3939 17.0075 70.2713 17.5097C70.1488 18.004 69.9489 18.4664 69.6717 18.8969C69.4008 19.3194 69.0429 19.6741 68.598 19.9611C68.1595 20.2481 67.6243 20.3916 66.9924 20.3916H62.456C62.1078 20.3916 61.7306 20.3159 61.3243 20.1644C60.9246 20.013 60.5506 19.7698 60.2023 19.435C59.8606 19.0922 59.5736 18.6497 59.3415 18.1076C59.1094 17.5575 58.9933 16.8919 58.9933 16.1106C58.9933 15.6801 59.0546 15.2138 59.1771 14.7115C59.2996 14.2093 59.4963 13.7469 59.7671 13.3244C60.0444 12.8939 60.4022 12.5351 60.8407 12.2481C61.2857 11.9611 61.8241 11.8176 62.456 11.8176H66.9924V14.7833H62.456C62.1143 14.7833 61.8499 14.9148 61.6629 15.1779C61.4759 15.433 61.3824 15.7519 61.3824 16.1345C61.3824 16.5411 61.4888 16.86 61.7016 17.0912C61.9208 17.3144 62.1787 17.426 62.4754 17.426H66.9924C67.3342 17.426 67.5985 17.2985 67.7855 17.0433C67.9725 16.7882 68.066 16.4694 68.066 16.0867V11.7459C68.066 11.3393 67.9629 11.0164 67.7565 10.7773C67.5566 10.5381 67.3019 10.4185 66.9924 10.4185H61.4694V7.46487H66.9924C67.3406 7.46487 67.7146 7.54061 68.1144 7.69208C68.5206 7.84355 68.8946 8.09068 69.2364 8.43348C69.5846 8.76831 69.8748 9.21076 70.1069 9.76084C70.3391 10.3029 70.4551 10.9646 70.4551 11.7459V16.1106Z" fill="white"/>
<path d="M85.3205 16.0269C85.3205 16.561 85.2657 17.0433 85.1561 17.4738C85.0464 17.8964 84.9013 18.2711 84.7208 18.5979C84.5402 18.9168 84.3307 19.1918 84.0921 19.423C83.8535 19.6462 83.602 19.8296 83.3376 19.9731C83.0797 20.1166 82.8185 20.2242 82.5542 20.296C82.2898 20.3597 82.0383 20.3916 81.7997 20.3916H77.2634V17.2825H81.7997C82.135 17.2825 82.3865 17.1749 82.5542 16.9596C82.7218 16.7444 82.8057 16.4335 82.8057 16.0269V11.8416C82.8057 11.4111 82.7186 11.0922 82.5445 10.8849C82.3768 10.6776 82.1286 10.574 81.7997 10.574H77.2827C76.9409 10.574 76.683 10.6816 76.5089 10.8969C76.3348 11.1041 76.2477 11.4111 76.2477 11.8176V24.4335H73.7329V11.8176C73.7329 11.2835 73.7877 10.8052 73.8973 10.3827C74.007 9.96014 74.1521 9.58944 74.3326 9.27055C74.5196 8.9437 74.7324 8.66866 74.971 8.44544C75.2096 8.21425 75.4578 8.02691 75.7158 7.88341C75.9801 7.73991 76.2445 7.63627 76.5089 7.5725C76.7797 7.50075 77.0312 7.46487 77.2634 7.46487H81.7997C82.2318 7.46487 82.6187 7.53264 82.9604 7.66816C83.3022 7.80369 83.602 7.98306 83.8599 8.20628C84.1243 8.4295 84.3468 8.68859 84.5273 8.98356C84.7143 9.27853 84.8659 9.58944 84.9819 9.91629C85.098 10.2352 85.1818 10.558 85.2334 10.8849C85.2915 11.2118 85.3205 11.5227 85.3205 11.8176V16.0269Z" fill="white"/>
<path d="M100.186 16.0269C100.186 16.561 100.131 17.0433 100.021 17.4738C99.9118 17.8964 99.7667 18.2711 99.5862 18.5979C99.4056 18.9168 99.196 19.1918 98.9574 19.423C98.7189 19.6462 98.4674 19.8296 98.203 19.9731C97.9451 20.1166 97.6839 20.2242 97.4195 20.296C97.1551 20.3597 96.9037 20.3916 96.6651 20.3916H92.1287V17.2825H96.6651C97.0004 17.2825 97.2519 17.1749 97.4195 16.9596C97.5872 16.7444 97.671 16.4335 97.671 16.0269V11.8416C97.671 11.4111 97.584 11.0922 97.4099 10.8849C97.2422 10.6776 96.9939 10.574 96.6651 10.574H92.1481C91.8063 10.574 91.5484 10.6816 91.3743 10.8969C91.2002 11.1041 91.1131 11.4111 91.1131 11.8176V24.4335H88.5983V11.8176C88.5983 11.2835 88.6531 10.8052 88.7627 10.3827C88.8723 9.96014 89.0174 9.58944 89.198 9.27055C89.385 8.9437 89.5978 8.66866 89.8363 8.44544C90.0749 8.21425 90.3232 8.02691 90.5811 7.88341C90.8455 7.73991 91.1099 7.63627 91.3743 7.5725C91.6451 7.50075 91.8966 7.46487 92.1287 7.46487H96.6651C97.0971 7.46487 97.484 7.53264 97.8258 7.66816C98.1675 7.80369 98.4674 7.98306 98.7253 8.20628C98.9897 8.4295 99.2122 8.68859 99.3927 8.98356C99.5797 9.27853 99.7312 9.58944 99.8473 9.91629C99.9634 10.2352 100.047 10.558 100.099 10.8849C100.157 11.2118 100.186 11.5227 100.186 11.8176V16.0269Z" fill="white"/>
<path d="M115.051 21.6353C115.051 22.1694 114.996 22.6477 114.887 23.0703C114.777 23.5007 114.632 23.8754 114.452 24.1943C114.271 24.5212 114.061 24.7962 113.823 25.0194C113.584 25.2506 113.333 25.438 113.068 25.5815C112.81 25.725 112.549 25.8286 112.285 25.8924C112.021 25.9641 111.769 26 111.53 26H106.994V22.8909H111.53C111.866 22.8909 112.117 22.7833 112.285 22.568C112.453 22.3528 112.536 22.0419 112.536 21.6353V7.46487H115.051V21.6353ZM111.53 20.3916H106.994C106.633 20.3916 106.246 20.3159 105.833 20.1644C105.427 20.013 105.047 19.7658 104.692 19.423C104.337 19.0722 104.044 18.6218 103.812 18.0717C103.58 17.5137 103.464 16.8321 103.464 16.0269V7.46487H105.978V16.0269C105.978 16.4335 106.066 16.7444 106.24 16.9596C106.414 17.1749 106.672 17.2825 107.013 17.2825H111.53V20.3916Z" fill="white"/>
<path d="M130.584 16.0269C130.584 16.6487 130.497 17.2267 130.323 17.7608C130.149 18.295 129.904 18.7573 129.588 19.148C129.278 19.5386 128.907 19.8455 128.475 20.0688C128.043 20.284 127.573 20.3916 127.063 20.3916H117.845V17.2825H127.063C127.373 17.2825 127.615 17.1749 127.789 16.9596C127.963 16.7364 128.05 16.4255 128.05 16.0269V3.24365H130.584V16.0269Z" fill="white"/>
<path d="M145.691 16.0269C145.691 16.561 145.636 17.0433 145.527 17.4738C145.417 17.8964 145.272 18.2711 145.091 18.5979C144.911 18.9168 144.701 19.1918 144.463 19.423C144.224 19.6462 143.973 19.8296 143.708 19.9731C143.45 20.1166 143.186 20.2242 142.915 20.296C142.651 20.3597 142.399 20.3916 142.161 20.3916H137.624C137.276 20.3916 136.896 20.3159 136.483 20.1644C136.07 20.013 135.687 19.7658 135.332 19.423C134.984 19.0722 134.69 18.6218 134.452 18.0717C134.22 17.5137 134.104 16.8321 134.104 16.0269V11.8176C134.104 11.0204 134.22 10.3468 134.452 9.79671C134.69 9.23866 134.984 8.78824 135.332 8.44544C135.687 8.09467 136.07 7.84355 136.483 7.69208C136.896 7.54061 137.276 7.46487 137.624 7.46487H142.161C142.806 7.46487 143.354 7.60837 143.805 7.89537C144.256 8.18236 144.621 8.54509 144.898 8.98356C145.175 9.41405 145.375 9.8844 145.498 10.3946C145.627 10.9048 145.691 11.3792 145.691 11.8176V16.0269ZM143.176 11.8416C143.176 11.4111 143.089 11.0922 142.915 10.8849C142.741 10.6776 142.49 10.574 142.161 10.574H137.644C137.308 10.574 137.054 10.6816 136.88 10.8969C136.705 11.1041 136.618 11.4111 136.618 11.8176V16.0269C136.618 16.4335 136.705 16.7444 136.88 16.9596C137.054 17.1749 137.308 17.2825 137.644 17.2825H142.161C142.502 17.2825 142.757 17.1749 142.925 16.9596C143.092 16.7444 143.176 16.4335 143.176 16.0269V11.8416Z" fill="white"/>
<path d="M160.556 16.0269C160.556 16.3219 160.527 16.6328 160.469 16.9596C160.418 17.2865 160.334 17.6134 160.218 17.9402C160.102 18.2591 159.95 18.566 159.763 18.861C159.583 19.156 159.36 19.419 159.096 19.6502C158.838 19.8734 158.538 20.0528 158.196 20.1883C157.855 20.3239 157.468 20.3916 157.036 20.3916H152.499C152.261 20.3916 152.009 20.3597 151.745 20.296C151.481 20.2242 151.216 20.1166 150.952 19.9731C150.694 19.8296 150.446 19.6462 150.207 19.423C149.968 19.1918 149.756 18.9168 149.569 18.5979C149.388 18.2711 149.243 17.8964 149.133 17.4738C149.024 17.0433 148.969 16.561 148.969 16.0269V2H151.484V16.0269C151.484 16.4096 151.58 16.7165 151.774 16.9477C151.967 17.1709 152.209 17.2825 152.499 17.2825H157.036C157.352 17.2825 157.597 17.1669 157.771 16.9357C157.951 16.7045 158.042 16.4016 158.042 16.0269V11.8176C158.042 11.427 157.948 11.1241 157.761 10.9088C157.574 10.6856 157.332 10.574 157.036 10.574H152.499V7.46487H157.036C157.274 7.46487 157.526 7.50075 157.79 7.5725C158.055 7.63627 158.316 7.73991 158.574 7.88341C158.838 8.02691 159.09 8.21425 159.328 8.44544C159.567 8.66866 159.776 8.9437 159.957 9.27055C160.137 9.58944 160.282 9.96014 160.392 10.3827C160.502 10.8052 160.556 11.2835 160.556 11.8176V16.0269Z" fill="white"/>
<path d="M174 16.0269C174 16.561 173.945 17.0433 173.836 17.4738C173.726 17.8964 173.581 18.2711 173.4 18.5979C173.22 18.9168 173.01 19.1918 172.772 19.423C172.533 19.6462 172.282 19.8296 172.017 19.9731C171.759 20.1166 171.495 20.2242 171.224 20.296C170.96 20.3597 170.708 20.3916 170.47 20.3916H163.66V17.2825H170.45C170.792 17.2825 171.05 17.1749 171.224 16.9596C171.398 16.7444 171.485 16.4335 171.485 16.0269C171.453 15.1978 171.114 14.7833 170.47 14.7833H166.572C166.017 14.7833 165.546 14.6637 165.159 14.4245C164.773 14.1854 164.457 13.8864 164.212 13.5277C163.973 13.1689 163.799 12.7823 163.689 12.3677C163.586 11.9532 163.534 11.5665 163.534 11.2078C163.534 10.5142 163.634 9.93224 163.834 9.46188C164.034 8.98356 164.286 8.59691 164.589 8.30194C164.892 8.00698 165.221 7.79572 165.575 7.66816C165.93 7.53264 166.262 7.46487 166.572 7.46487H172.752V10.574H166.591C166.462 10.574 166.359 10.5939 166.281 10.6338C166.21 10.6657 166.156 10.7135 166.117 10.7773C166.085 10.8331 166.065 10.8969 166.059 10.9686C166.052 11.0324 166.049 11.0962 166.049 11.1599C166.056 11.2875 166.075 11.3871 166.107 11.4589C166.14 11.5306 166.178 11.5825 166.223 11.6144C166.275 11.6462 166.33 11.6662 166.388 11.6741C166.452 11.6741 166.514 11.6741 166.572 11.6741H170.47C171.114 11.6741 171.663 11.8176 172.114 12.1046C172.565 12.3916 172.93 12.7544 173.207 13.1928C173.484 13.6233 173.684 14.0937 173.807 14.6039C173.936 15.1141 174 15.5884 174 16.0269Z" fill="white"/>
<path d="M44.5148 10.2511H53.3458V3.24365H55.8606V20.3916H53.3458V13.3842H44.5148V20.3916H42V3.24365H44.5148V10.2511Z" stroke="white" stroke-width="0.5" mask="url(#path-2-outside-1_2838_87010)"/>
<path d="M70.4551 16.1106C70.4551 16.5411 70.3939 17.0075 70.2713 17.5097C70.1488 18.004 69.9489 18.4664 69.6717 18.8969C69.4008 19.3194 69.0429 19.6741 68.598 19.9611C68.1595 20.2481 67.6243 20.3916 66.9924 20.3916H62.456C62.1078 20.3916 61.7306 20.3159 61.3243 20.1644C60.9246 20.013 60.5506 19.7698 60.2023 19.435C59.8606 19.0922 59.5736 18.6497 59.3415 18.1076C59.1094 17.5575 58.9933 16.8919 58.9933 16.1106C58.9933 15.6801 59.0546 15.2138 59.1771 14.7115C59.2996 14.2093 59.4963 13.7469 59.7671 13.3244C60.0444 12.8939 60.4022 12.5351 60.8407 12.2481C61.2857 11.9611 61.8241 11.8176 62.456 11.8176H66.9924V14.7833H62.456C62.1143 14.7833 61.8499 14.9148 61.6629 15.1779C61.4759 15.433 61.3824 15.7519 61.3824 16.1345C61.3824 16.5411 61.4888 16.86 61.7016 17.0912C61.9208 17.3144 62.1787 17.426 62.4754 17.426H66.9924C67.3342 17.426 67.5985 17.2985 67.7855 17.0433C67.9725 16.7882 68.066 16.4694 68.066 16.0867V11.7459C68.066 11.3393 67.9629 11.0164 67.7565 10.7773C67.5566 10.5381 67.3019 10.4185 66.9924 10.4185H61.4694V7.46487H66.9924C67.3406 7.46487 67.7146 7.54061 68.1144 7.69208C68.5206 7.84355 68.8946 8.09068 69.2364 8.43348C69.5846 8.76831 69.8748 9.21076 70.1069 9.76084C70.3391 10.3029 70.4551 10.9646 70.4551 11.7459V16.1106Z" stroke="white" stroke-width="0.5" mask="url(#path-2-outside-1_2838_87010)"/>
<path d="M85.3205 16.0269C85.3205 16.561 85.2657 17.0433 85.1561 17.4738C85.0464 17.8964 84.9013 18.2711 84.7208 18.5979C84.5402 18.9168 84.3307 19.1918 84.0921 19.423C83.8535 19.6462 83.602 19.8296 83.3376 19.9731C83.0797 20.1166 82.8185 20.2242 82.5542 20.296C82.2898 20.3597 82.0383 20.3916 81.7997 20.3916H77.2634V17.2825H81.7997C82.135 17.2825 82.3865 17.1749 82.5542 16.9596C82.7218 16.7444 82.8057 16.4335 82.8057 16.0269V11.8416C82.8057 11.4111 82.7186 11.0922 82.5445 10.8849C82.3768 10.6776 82.1286 10.574 81.7997 10.574H77.2827C76.9409 10.574 76.683 10.6816 76.5089 10.8969C76.3348 11.1041 76.2477 11.4111 76.2477 11.8176V24.4335H73.7329V11.8176C73.7329 11.2835 73.7877 10.8052 73.8973 10.3827C74.007 9.96014 74.1521 9.58944 74.3326 9.27055C74.5196 8.9437 74.7324 8.66866 74.971 8.44544C75.2096 8.21425 75.4578 8.02691 75.7158 7.88341C75.9801 7.73991 76.2445 7.63627 76.5089 7.5725C76.7797 7.50075 77.0312 7.46487 77.2634 7.46487H81.7997C82.2318 7.46487 82.6187 7.53264 82.9604 7.66816C83.3022 7.80369 83.602 7.98306 83.8599 8.20628C84.1243 8.4295 84.3468 8.68859 84.5273 8.98356C84.7143 9.27853 84.8659 9.58944 84.9819 9.91629C85.098 10.2352 85.1818 10.558 85.2334 10.8849C85.2915 11.2118 85.3205 11.5227 85.3205 11.8176V16.0269Z" stroke="white" stroke-width="0.5" mask="url(#path-2-outside-1_2838_87010)"/>
<path d="M100.186 16.0269C100.186 16.561 100.131 17.0433 100.021 17.4738C99.9118 17.8964 99.7667 18.2711 99.5862 18.5979C99.4056 18.9168 99.196 19.1918 98.9574 19.423C98.7189 19.6462 98.4674 19.8296 98.203 19.9731C97.9451 20.1166 97.6839 20.2242 97.4195 20.296C97.1551 20.3597 96.9037 20.3916 96.6651 20.3916H92.1287V17.2825H96.6651C97.0004 17.2825 97.2519 17.1749 97.4195 16.9596C97.5872 16.7444 97.671 16.4335 97.671 16.0269V11.8416C97.671 11.4111 97.584 11.0922 97.4099 10.8849C97.2422 10.6776 96.9939 10.574 96.6651 10.574H92.1481C91.8063 10.574 91.5484 10.6816 91.3743 10.8969C91.2002 11.1041 91.1131 11.4111 91.1131 11.8176V24.4335H88.5983V11.8176C88.5983 11.2835 88.6531 10.8052 88.7627 10.3827C88.8723 9.96014 89.0174 9.58944 89.198 9.27055C89.385 8.9437 89.5978 8.66866 89.8363 8.44544C90.0749 8.21425 90.3232 8.02691 90.5811 7.88341C90.8455 7.73991 91.1099 7.63627 91.3743 7.5725C91.6451 7.50075 91.8966 7.46487 92.1287 7.46487H96.6651C97.0971 7.46487 97.484 7.53264 97.8258 7.66816C98.1675 7.80369 98.4674 7.98306 98.7253 8.20628C98.9897 8.4295 99.2122 8.68859 99.3927 8.98356C99.5797 9.27853 99.7312 9.58944 99.8473 9.91629C99.9634 10.2352 100.047 10.558 100.099 10.8849C100.157 11.2118 100.186 11.5227 100.186 11.8176V16.0269Z" stroke="white" stroke-width="0.5" mask="url(#path-2-outside-1_2838_87010)"/>
<path d="M115.051 21.6353C115.051 22.1694 114.996 22.6477 114.887 23.0703C114.777 23.5007 114.632 23.8754 114.452 24.1943C114.271 24.5212 114.061 24.7962 113.823 25.0194C113.584 25.2506 113.333 25.438 113.068 25.5815C112.81 25.725 112.549 25.8286 112.285 25.8924C112.021 25.9641 111.769 26 111.53 26H106.994V22.8909H111.53C111.866 22.8909 112.117 22.7833 112.285 22.568C112.453 22.3528 112.536 22.0419 112.536 21.6353V7.46487H115.051V21.6353ZM111.53 20.3916H106.994C106.633 20.3916 106.246 20.3159 105.833 20.1644C105.427 20.013 105.047 19.7658 104.692 19.423C104.337 19.0722 104.044 18.6218 103.812 18.0717C103.58 17.5137 103.464 16.8321 103.464 16.0269V7.46487H105.978V16.0269C105.978 16.4335 106.066 16.7444 106.24 16.9596C106.414 17.1749 106.672 17.2825 107.013 17.2825H111.53V20.3916Z" stroke="white" stroke-width="0.5" mask="url(#path-2-outside-1_2838_87010)"/>
<path d="M130.584 16.0269C130.584 16.6487 130.497 17.2267 130.323 17.7608C130.149 18.295 129.904 18.7573 129.588 19.148C129.278 19.5386 128.907 19.8455 128.475 20.0688C128.043 20.284 127.573 20.3916 127.063 20.3916H117.845V17.2825H127.063C127.373 17.2825 127.615 17.1749 127.789 16.9596C127.963 16.7364 128.05 16.4255 128.05 16.0269V3.24365H130.584V16.0269Z" stroke="white" stroke-width="0.5" mask="url(#path-2-outside-1_2838_87010)"/>
<path d="M145.691 16.0269C145.691 16.561 145.636 17.0433 145.527 17.4738C145.417 17.8964 145.272 18.2711 145.091 18.5979C144.911 18.9168 144.701 19.1918 144.463 19.423C144.224 19.6462 143.973 19.8296 143.708 19.9731C143.45 20.1166 143.186 20.2242 142.915 20.296C142.651 20.3597 142.399 20.3916 142.161 20.3916H137.624C137.276 20.3916 136.896 20.3159 136.483 20.1644C136.07 20.013 135.687 19.7658 135.332 19.423C134.984 19.0722 134.69 18.6218 134.452 18.0717C134.22 17.5137 134.104 16.8321 134.104 16.0269V11.8176C134.104 11.0204 134.22 10.3468 134.452 9.79671C134.69 9.23866 134.984 8.78824 135.332 8.44544C135.687 8.09467 136.07 7.84355 136.483 7.69208C136.896 7.54061 137.276 7.46487 137.624 7.46487H142.161C142.806 7.46487 143.354 7.60837 143.805 7.89537C144.256 8.18236 144.621 8.54509 144.898 8.98356C145.175 9.41405 145.375 9.8844 145.498 10.3946C145.627 10.9048 145.691 11.3792 145.691 11.8176V16.0269ZM143.176 11.8416C143.176 11.4111 143.089 11.0922 142.915 10.8849C142.741 10.6776 142.49 10.574 142.161 10.574H137.644C137.308 10.574 137.054 10.6816 136.88 10.8969C136.705 11.1041 136.618 11.4111 136.618 11.8176V16.0269C136.618 16.4335 136.705 16.7444 136.88 16.9596C137.054 17.1749 137.308 17.2825 137.644 17.2825H142.161C142.502 17.2825 142.757 17.1749 142.925 16.9596C143.092 16.7444 143.176 16.4335 143.176 16.0269V11.8416Z" stroke="white" stroke-width="0.5" mask="url(#path-2-outside-1_2838_87010)"/>
<path d="M160.556 16.0269C160.556 16.3219 160.527 16.6328 160.469 16.9596C160.418 17.2865 160.334 17.6134 160.218 17.9402C160.102 18.2591 159.95 18.566 159.763 18.861C159.583 19.156 159.36 19.419 159.096 19.6502C158.838 19.8734 158.538 20.0528 158.196 20.1883C157.855 20.3239 157.468 20.3916 157.036 20.3916H152.499C152.261 20.3916 152.009 20.3597 151.745 20.296C151.481 20.2242 151.216 20.1166 150.952 19.9731C150.694 19.8296 150.446 19.6462 150.207 19.423C149.968 19.1918 149.756 18.9168 149.569 18.5979C149.388 18.2711 149.243 17.8964 149.133 17.4738C149.024 17.0433 148.969 16.561 148.969 16.0269V2H151.484V16.0269C151.484 16.4096 151.58 16.7165 151.774 16.9477C151.967 17.1709 152.209 17.2825 152.499 17.2825H157.036C157.352 17.2825 157.597 17.1669 157.771 16.9357C157.951 16.7045 158.042 16.4016 158.042 16.0269V11.8176C158.042 11.427 157.948 11.1241 157.761 10.9088C157.574 10.6856 157.332 10.574 157.036 10.574H152.499V7.46487H157.036C157.274 7.46487 157.526 7.50075 157.79 7.5725C158.055 7.63627 158.316 7.73991 158.574 7.88341C158.838 8.02691 159.09 8.21425 159.328 8.44544C159.567 8.66866 159.776 8.9437 159.957 9.27055C160.137 9.58944 160.282 9.96014 160.392 10.3827C160.502 10.8052 160.556 11.2835 160.556 11.8176V16.0269Z" stroke="white" stroke-width="0.5" mask="url(#path-2-outside-1_2838_87010)"/>
<path d="M174 16.0269C174 16.561 173.945 17.0433 173.836 17.4738C173.726 17.8964 173.581 18.2711 173.4 18.5979C173.22 18.9168 173.01 19.1918 172.772 19.423C172.533 19.6462 172.282 19.8296 172.017 19.9731C171.759 20.1166 171.495 20.2242 171.224 20.296C170.96 20.3597 170.708 20.3916 170.47 20.3916H163.66V17.2825H170.45C170.792 17.2825 171.05 17.1749 171.224 16.9596C171.398 16.7444 171.485 16.4335 171.485 16.0269C171.453 15.1978 171.114 14.7833 170.47 14.7833H166.572C166.017 14.7833 165.546 14.6637 165.159 14.4245C164.773 14.1854 164.457 13.8864 164.212 13.5277C163.973 13.1689 163.799 12.7823 163.689 12.3677C163.586 11.9532 163.534 11.5665 163.534 11.2078C163.534 10.5142 163.634 9.93224 163.834 9.46188C164.034 8.98356 164.286 8.59691 164.589 8.30194C164.892 8.00698 165.221 7.79572 165.575 7.66816C165.93 7.53264 166.262 7.46487 166.572 7.46487H172.752V10.574H166.591C166.462 10.574 166.359 10.5939 166.281 10.6338C166.21 10.6657 166.156 10.7135 166.117 10.7773C166.085 10.8331 166.065 10.8969 166.059 10.9686C166.052 11.0324 166.049 11.0962 166.049 11.1599C166.056 11.2875 166.075 11.3871 166.107 11.4589C166.14 11.5306 166.178 11.5825 166.223 11.6144C166.275 11.6462 166.33 11.6662 166.388 11.6741C166.452 11.6741 166.514 11.6741 166.572 11.6741H170.47C171.114 11.6741 171.663 11.8176 172.114 12.1046C172.565 12.3916 172.93 12.7544 173.207 13.1928C173.484 13.6233 173.684 14.0937 173.807 14.6039C173.936 15.1141 174 15.5884 174 16.0269Z" stroke="white" stroke-width="0.5" mask="url(#path-2-outside-1_2838_87010)"/>
</svg>
