<svg width="546" height="513" viewBox="0 0 546 513" fill="none" xmlns="http://www.w3.org/2000/svg">
<mask id="mask0_3615_1788306" style="mask-type:alpha" maskUnits="userSpaceOnUse" x="0" y="0" width="546" height="513">
<rect width="546" height="513" fill="#D9D9D9"/>
</mask>
<g mask="url(#mask0_3615_1788306)">
<g opacity="0.3">
<path d="M327.244 24.4206C223.974 37.6578 208.012 65.2156 153.63 109.152C125.38 131.977 80.6826 198.653 75.4382 217.935C43.92 321.503 45.8547 364.379 75.4382 385.538C120.169 422.95 178.356 397.846 200.667 364.379C238.324 307.893 268.659 299.525 298.993 313.123C358.818 357.884 368.077 371.695 414.056 351.826C475.109 307.315 477.36 164.006 464.32 139.478C416.405 37.4905 385.86 24.4187 327.244 24.4206Z" fill="#F9A9B4"/>
<ellipse cx="429.789" cy="203.284" rx="116.109" ry="150.628" fill="#7FBCCE"/>
<path d="M311.592 494.08C203.852 551.612 61.2435 452.936 21.8432 391.569C-12.4665 343.033 15.2183 313.464 33.3495 304.747C62.6378 290.666 86.6692 320.302 95.0647 334.039C106.571 352.867 135.86 364.374 142.136 367.512C170.379 375.88 201.062 370.651 223.726 360.19C292.764 338.223 331.119 361.929 342.974 382.152C377.283 437.382 334.605 484.666 311.592 494.08Z" fill="#AD7DFE"/>
<path d="M85.5451 107.316C99.3413 99.3509 131.873 102.811 141.484 119.457C151.095 136.104 134.145 159.633 120.349 167.599C106.553 175.564 78.5332 162.589 68.9224 145.943C59.3115 129.296 71.7488 115.281 85.5451 107.316Z" fill="#7FBCCE"/>
<path d="M150.693 43.1058C154.319 47.491 154.307 59.7591 148.287 64.7376C142.267 69.7162 132.52 65.5199 128.893 61.1347C125.266 56.7494 129.125 45.3166 135.145 40.3381C141.165 35.3596 147.066 38.7206 150.693 43.1058Z" fill="#DDF77D"/>
<ellipse cx="417.678" cy="429.588" rx="31.8522" ry="26.9626" transform="rotate(112.37 417.678 429.588)" fill="#DDF77D"/>
<ellipse cx="398.242" cy="373.208" rx="16.6983" ry="11.6574" transform="rotate(-4.8113 398.242 373.208)" fill="#DDF77D"/>
<path d="M101.342 308.94C25.1908 177.559 58.4545 84.7412 84.6052 54.755C127.481 5.58877 192.694 9.42718 219.541 11.8679C355.525 24.2304 422.819 113.333 447.575 163.542C506.884 283.83 420.03 388.438 359.709 422.957C252.596 498.271 142.834 378.326 101.342 308.94Z" stroke="#1D4ED8" stroke-width="5"/>
</g>
</g>
</svg>
