<svg width="1536" height="646" viewBox="0 0 1536 646" fill="none" xmlns="http://www.w3.org/2000/svg">
<mask id="mask0_4400_126791" style="mask-type:alpha" maskUnits="userSpaceOnUse" x="0" y="0" width="1536" height="646">
<rect width="1536" height="646" fill="#D9D9D9"/>
</mask>
<g mask="url(#mask0_4400_126791)">
<g opacity="0.3">
<path d="M1369.24 -40.5794C1265.97 -27.3422 1250.01 0.215551 1195.63 44.1524C1167.38 66.9766 1122.68 133.653 1117.44 152.935C1085.92 256.503 1087.85 299.379 1117.44 320.538C1162.17 357.95 1220.36 332.846 1242.67 299.379C1280.32 242.893 1310.66 234.525 1340.99 248.123C1400.82 292.884 1410.08 306.695 1456.06 286.826C1517.11 242.315 1519.36 99.0063 1506.32 74.4778C1458.41 -27.5095 1427.86 -40.5813 1369.24 -40.5794Z" fill="#F9A9B4"/>
<ellipse cx="1471.79" cy="138.284" rx="116.109" ry="150.628" fill="#7FBCCE"/>
<path d="M1353.59 429.08C1245.85 486.612 1103.24 387.936 1063.84 326.569C1029.53 278.033 1057.22 248.464 1075.35 239.747C1104.64 225.666 1128.67 255.302 1137.06 269.039C1148.57 287.867 1177.86 299.374 1184.14 302.512C1212.38 310.88 1243.06 305.651 1265.73 295.19C1334.76 273.223 1373.12 296.929 1384.97 317.152C1419.28 372.382 1376.6 419.666 1353.59 429.08Z" fill="#AD7DFE"/>
<path d="M1127.55 42.3162C1141.34 34.3509 1173.87 37.8105 1183.48 54.457C1193.09 71.1036 1176.15 94.6334 1162.35 102.599C1148.55 110.564 1120.53 97.5894 1110.92 80.9429C1101.31 64.2963 1113.75 50.2814 1127.55 42.3162Z" fill="#7FBCCE"/>
<path d="M1192.69 -21.8942C1196.32 -17.509 1196.31 -5.2409 1190.29 -0.262366C1184.27 4.71617 1174.52 0.519899 1170.89 -3.86534C1167.27 -8.25057 1171.13 -19.6834 1177.15 -24.6619C1183.16 -29.6404 1189.07 -26.2794 1192.69 -21.8942Z" fill="#DDF77D"/>
<ellipse cx="1459.68" cy="364.586" rx="31.8522" ry="26.9626" transform="rotate(112.37 1459.68 364.586)" fill="#DDF77D"/>
<ellipse cx="1440.24" cy="308.208" rx="16.6983" ry="11.6574" transform="rotate(-4.8113 1440.24 308.208)" fill="#DDF77D"/>
<path d="M1143.34 243.938C1067.19 112.557 1100.45 19.7392 1126.61 -10.2469C1169.48 -59.4132 1234.69 -55.5748 1261.54 -53.134C1397.53 -40.7715 1464.82 48.3306 1489.58 98.5399C1548.88 218.828 1462.03 323.436 1401.71 357.955C1294.6 433.269 1184.83 313.324 1143.34 243.938Z" stroke="#1D4ED8" stroke-width="5"/>
</g>
<g opacity="0.3">
<path d="M254.089 594.488C205.293 625.183 138.649 572.372 107.653 537.23C78.368 504.028 111.117 470.207 131.141 465.894C162.115 456.508 178.372 455.257 180.875 445.245C198.146 397.938 235.955 440.867 256.918 465.897C297.279 536.295 273.487 582.286 254.089 594.488Z" fill="#FE5C4F"/>
<path d="M85.1827 373.198C63.5434 400.416 -3.07275 377.306 -16.1798 367.604C-37.7862 351.609 -19.9083 327.56 -3.06565 320.628C22.5683 308.107 28.2006 304.303 28.8454 297.161C43.8796 252.115 77.6228 274.639 89.8617 297.161C100.187 320.628 97.1874 358.098 85.1827 373.198Z" fill="#7FBCCE"/>
<ellipse cx="240.338" cy="328.388" rx="7.6197" ry="9.87934" transform="rotate(-137.894 240.338 328.388)" fill="#7FBCCE"/>
<path d="M84.9304 331.054C140.498 299.516 186.303 320.73 220.998 342.318C238.867 355.458 254.06 368.023 262.31 378.927C308.303 436.184 302.359 469.349 292.346 482.177C274.325 514.466 220.384 493.753 195.667 479.361C141.226 459.65 123.392 502.827 123.392 505.643C106.496 559.145 72.7055 546.943 70.8283 548.82C27.2755 542.813 15.1343 498.134 14.5078 476.545C8.87602 377.988 81.1758 331.054 84.9304 331.054Z" fill="#F9A9B4"/>
<ellipse cx="119.963" cy="608.642" rx="30.8041" ry="24.0532" transform="rotate(112.37 119.963 608.642)" fill="#FF71DB"/>
<ellipse cx="350.132" cy="454.746" rx="25.264" ry="17.6473" transform="rotate(-59.0278 350.132 454.746)" fill="#7FBCCE"/>
<path d="M48.3435 580.734C-35.0074 538.683 -17.6892 471.224 4.21236 438.059C29.5524 408.023 58.0417 397.699 70.8676 393.944C98.777 385.773 103.157 352.228 108.163 334.707C118.676 304.67 130.315 293.51 140.327 286.001C168.861 255.214 232.626 273.174 258.595 286.002C322.422 320.544 291.76 370.791 270.797 393.944C250.147 419.286 245.454 463.717 244.515 484.993C244.515 531.923 229.81 557.894 220.111 569.47C180.438 613.482 90.579 600.443 48.3435 580.734Z" stroke="#1D4ED8" stroke-width="4"/>
<path d="M130.519 295.298C128.11 290.402 129.871 279.442 135.618 276.614C141.366 273.786 148.924 280.161 151.333 285.057C153.741 289.952 148.881 299.13 143.133 301.958C137.385 304.787 132.927 300.194 130.519 295.298Z" fill="#FF71DB"/>
</g>
</g>
</svg>
