<svg width="398" height="376" viewBox="0 0 398 376" fill="none" xmlns="http://www.w3.org/2000/svg">
<mask id="mask0_3715_123757" style="mask-type:alpha" maskUnits="userSpaceOnUse" x="0" y="0" width="398" height="376">
<rect width="398" height="376" fill="#D9D9D9"/>
</mask>
<g mask="url(#mask0_3715_123757)">
<g opacity="0.3">
<path d="M255.089 330.488C206.293 361.183 139.649 308.372 108.653 273.23C79.368 240.028 112.117 206.207 132.141 201.894C163.115 192.508 179.372 191.257 181.875 181.245C199.146 133.938 236.955 176.867 257.918 201.897C298.279 272.295 274.487 318.286 255.089 330.488Z" fill="#FE5C4F"/>
<path d="M86.1827 109.198C64.5434 136.416 -2.07275 113.306 -15.1798 103.604C-36.7862 87.6092 -18.9083 63.5599 -2.06565 56.6278C23.5683 44.1065 29.2006 40.3028 29.8454 33.1614C44.8796 -11.8851 78.6228 10.6386 90.8617 33.1611C101.187 56.6277 98.1874 94.0977 86.1827 109.198Z" fill="#7FBCCE"/>
<ellipse cx="241.338" cy="64.3876" rx="7.6197" ry="9.87934" transform="rotate(-137.894 241.338 64.3876)" fill="#7FBCCE"/>
<path d="M85.9343 67.0541C141.502 35.5159 187.307 56.7303 222.002 78.318C239.871 91.4584 255.063 104.023 263.314 114.927C309.307 172.184 303.362 205.349 293.35 218.177C275.329 250.466 221.388 229.753 196.671 215.361C142.23 195.65 124.396 238.827 124.396 241.643C107.5 295.145 73.7094 282.943 71.8322 284.82C28.2794 278.813 16.1382 234.134 15.5117 212.545C9.87993 113.988 82.1797 67.0541 85.9343 67.0541Z" fill="#F9A9B4"/>
<ellipse cx="120.963" cy="344.642" rx="30.8041" ry="24.0532" transform="rotate(112.37 120.963 344.642)" fill="#FF71DB"/>
<ellipse cx="351.132" cy="190.746" rx="25.264" ry="17.6473" transform="rotate(-59.0278 351.132 190.746)" fill="#7FBCCE"/>
<path d="M49.3435 316.734C-34.0074 274.683 -16.6892 207.224 5.21236 174.059C30.5524 144.023 59.0417 133.699 71.8676 129.944C99.777 121.773 104.157 88.2281 109.163 70.7065C119.676 40.6701 131.315 29.5096 141.327 22.0009C169.861 -8.78643 233.626 9.17379 259.595 22.0018C323.422 56.5436 292.76 106.791 271.797 129.944C251.147 155.286 246.454 199.717 245.515 220.993C245.515 267.923 230.81 293.894 221.111 305.47C181.438 349.482 91.579 336.443 49.3435 316.734Z" stroke="#1D4ED8" stroke-width="4"/>
<path d="M131.519 31.2981C129.11 26.4024 130.871 15.442 136.618 12.614C142.366 9.78589 149.924 16.1611 152.333 21.0567C154.741 25.9524 149.881 35.1304 144.133 37.9585C138.385 40.7865 133.927 36.1937 131.519 31.2981Z" fill="#FF71DB"/>
</g>
</g>
</svg>
