<svg width="1536" height="655" viewBox="0 0 1536 655" fill="none" xmlns="http://www.w3.org/2000/svg">
<mask id="mask0_311_781" style="mask-type:alpha" maskUnits="userSpaceOnUse" x="0" y="0" width="1536" height="376">
<rect width="1536" height="376" fill="#1F2937"/>
</mask>
<g mask="url(#mask0_311_781)">
<rect width="1536" height="376" fill="#1F2937"/>
<g opacity="0.3">
<path d="M-8.40035 72.8019L-44.9855 224.541L148.52 201.046L-8.40035 72.8019Z" fill="url(#paint0_linear_311_781)"/>
<path d="M399.738 466.564L461.077 359.147L308.134 333.319L399.738 466.564Z" fill="url(#paint1_linear_311_781)"/>
<path d="M58.0846 336.018L179.394 311.833L98.5407 179.464L58.0846 336.018Z" fill="url(#paint2_linear_311_781)"/>
<path d="M156.574 32.8073L118.589 -84.913L-3.59515 10.6376L156.574 32.8073Z" fill="url(#paint3_linear_311_781)"/>
<path d="M254.413 146.901L158.03 118.242L166.741 243.419L254.413 146.901Z" fill="url(#paint4_linear_311_781)"/>
<path d="M275.119 254.841L352.437 234.265L294.827 152.127L275.119 254.841Z" fill="url(#paint5_linear_311_781)"/>
<path d="M90.352 346.487L58.7354 251.033L-38.965 329.772L90.352 346.487Z" fill="url(#paint6_linear_311_781)"/>
<path d="M214.411 179.001L288.82 208.407L222.072 283.307L214.411 179.001Z" fill="url(#paint7_linear_311_781)"/>
<path d="M203.256 -18.0006L179.775 58.4853L279.957 53.101L203.256 -18.0006Z" fill="url(#paint8_linear_311_781)"/>
<path d="M235.367 101.432L122.249 -6.12085L45.844 173.207L235.367 101.432Z" fill="url(#paint9_linear_311_781)"/>
<path d="M283.297 427.273L279.243 271.238L98.468 344.153L283.297 427.273Z" fill="url(#paint10_linear_311_781)"/>
</g>
<g opacity="0.3">
<path d="M1367.31 -0.0253906L1218.31 46.4746L1337.81 200.475L1367.31 -0.0253906Z" fill="url(#paint11_linear_311_781)"/>
<path d="M1175.81 99.5456L1299.48 97.0419L1243.13 -47.4698L1175.81 99.5456Z" fill="url(#paint12_linear_311_781)"/>
<path d="M1175.56 192.155L1258.59 283.844L1330.67 146.505L1175.56 192.155Z" fill="url(#paint13_linear_311_781)"/>
<path d="M1486.32 121.02L1567.85 27.9897L1423.12 -27.8141L1486.32 121.02Z" fill="url(#paint14_linear_311_781)"/>
<path d="M1438.64 263.554L1413.76 166.128L1310.8 237.864L1438.64 263.554Z" fill="url(#paint15_linear_311_781)"/>
<path d="M1356.64 336.737L1413.99 392.527L1454.9 300.921L1356.64 336.737Z" fill="url(#paint16_linear_311_781)"/>
<path d="M1183.14 225.223L1248.82 149.088L1131.09 105.666L1183.14 225.223Z" fill="url(#paint17_linear_311_781)"/>
<path d="M1076.2 199.812L1063.24 278.764L1161.78 259.933L1076.2 199.812Z" fill="url(#paint18_linear_311_781)"/>
<path d="M1219.2 -38.026L1232.17 40.9259L1133.62 22.0949L1219.2 -38.026Z" fill="url(#paint19_linear_311_781)"/>
<path d="M729.841 247.254L779.422 213.153L717.867 169.509L729.841 247.254Z" fill="url(#paint20_linear_311_781)"/>
<path d="M974.733 234.839L897.041 253.953L953.091 337.163L974.733 234.839Z" fill="url(#paint21_linear_311_781)"/>
<path d="M1580.14 127.374L1425.13 145.682L1514.27 319.03L1580.14 127.374Z" fill="url(#paint22_linear_311_781)"/>
<path d="M1075.14 208.081L920.129 189.773L1009.27 16.4248L1075.14 208.081Z" fill="url(#paint23_linear_311_781)"/>
<path d="M1467.88 223.868L1502.11 71.5801L1308.99 98.0701L1467.88 223.868Z" fill="url(#paint24_linear_311_781)"/>
<path d="M1212.86 432.277L1344.68 348.697L1189.3 230.992L1212.86 432.277Z" fill="url(#paint25_linear_311_781)"/>
<path d="M1024.77 311.71L1056.95 238.457L956.817 232.206L1024.77 311.71Z" fill="url(#paint26_linear_311_781)"/>
<path d="M1070.82 344.507L1149.71 331.23L1100.02 244.079L1070.82 344.507Z" fill="url(#paint27_linear_311_781)"/>
<path d="M957.512 283.999L893.647 426.423L1088.17 438.913L957.512 283.999Z" fill="url(#paint28_linear_311_781)"/>
<path d="M1090.2 35.9994L1077.24 114.951L1175.78 96.1203L1090.2 35.9994Z" fill="url(#paint29_linear_311_781)"/>
<path d="M988.326 132.081L833.316 113.773L922.459 -59.5752L988.326 132.081Z" fill="url(#paint30_linear_311_781)"/>
<path d="M852.483 85.1467L877.304 58.2393L834.993 41.0153L852.483 85.1467Z" fill="url(#paint31_linear_311_781)"/>
<path d="M913.945 187L879.175 198.453L907.782 234.069L913.945 187Z" fill="url(#paint32_linear_311_781)"/>
<path d="M610.001 372.873L693.031 464.563L765.12 327.224L610.001 372.873Z" fill="url(#paint33_linear_311_781)"/>
<path d="M1311 302.413L1351.38 233.338L1415.26 310.696L1311 302.413Z" fill="url(#paint34_linear_311_781)"/>
</g>
</g>
<path d="M291.968 528.24C294.8 528.24 296.996 528.912 298.556 530.256C300.14 531.576 300.932 533.34 300.932 535.548C300.932 537.972 300.152 539.82 298.592 541.092C297.032 542.364 294.836 543 292.004 543L291.428 543.324H286.712V552H280.628V528.24H291.968ZM291.104 538.932C292.304 538.932 293.204 538.692 293.804 538.212C294.404 537.732 294.704 536.964 294.704 535.908C294.704 534.876 294.404 534.12 293.804 533.64C293.204 533.16 292.304 532.92 291.104 532.92H286.712V538.932H291.104ZM294.74 540.228L302.336 552H295.496L289.412 541.596L294.74 540.228ZM305.448 552V528.24H323.952V533.028H311.64V537.852H321.432V542.352H311.64V547.212H324.42V552H305.448ZM349.759 552H343.387L341.731 546.636H333.595L331.903 552H325.675L334.027 528.24H341.443L349.759 552ZM334.747 542.424H340.579L337.663 532.812L334.747 542.424ZM358.715 547.212H370.631V552H352.523V528.24H358.715V547.212ZM377.158 545.808C378.286 545.808 379.162 546.096 379.786 546.672C380.434 547.248 380.758 548.052 380.758 549.084C380.758 550.092 380.434 550.884 379.786 551.46C379.162 552.036 378.286 552.324 377.158 552.324C376.054 552.324 375.178 552.036 374.53 551.46C373.882 550.884 373.558 550.092 373.558 549.084C373.558 548.052 373.882 547.248 374.53 546.672C375.178 546.096 376.054 545.808 377.158 545.808ZM302.084 579.24V603H295.892V579.24H302.084ZM286.82 579.24V603H280.628V579.24H286.82ZM299.204 588.636V593.424H283.652V588.636H299.204ZM318.003 578.88C320.403 578.88 322.467 579.372 324.195 580.356C325.947 581.316 327.291 582.708 328.227 584.532C329.163 586.356 329.631 588.552 329.631 591.12C329.631 593.688 329.163 595.884 328.227 597.708C327.291 599.532 325.947 600.936 324.195 601.92C322.467 602.88 320.403 603.36 318.003 603.36C315.603 603.36 313.527 602.88 311.775 601.92C310.023 600.936 308.679 599.532 307.743 597.708C306.807 595.884 306.339 593.688 306.339 591.12C306.339 588.552 306.807 586.356 307.743 584.532C308.679 582.708 310.023 581.316 311.775 580.356C313.527 579.372 315.603 578.88 318.003 578.88ZM318.003 583.74C316.851 583.74 315.879 584.016 315.087 584.568C314.295 585.12 313.695 585.948 313.287 587.052C312.879 588.132 312.675 589.488 312.675 591.12C312.675 592.728 312.879 594.084 313.287 595.188C313.695 596.292 314.295 597.12 315.087 597.672C315.879 598.224 316.851 598.5 318.003 598.5C319.155 598.5 320.115 598.224 320.883 597.672C321.675 597.12 322.275 596.292 322.683 595.188C323.091 594.084 323.295 592.728 323.295 591.12C323.295 589.488 323.091 588.132 322.683 587.052C322.275 585.948 321.675 585.12 320.883 584.568C320.115 584.016 319.155 583.74 318.003 583.74ZM355.31 579.24V603H348.434L341.054 590.148L339.254 586.62H339.218L339.362 591.012V603H333.89V579.24H340.766L348.146 592.092L349.946 595.62H349.982L349.838 591.228V579.24H355.31ZM360.573 603V579.24H379.077V584.028H366.765V588.852H376.557V593.352H366.765V598.212H379.545V603H360.573ZM392.572 578.88C394.78 578.88 396.724 579.228 398.404 579.924C400.108 580.596 401.584 581.592 402.832 582.912L399.844 586.908C398.812 585.828 397.696 585.024 396.496 584.496C395.32 583.944 393.976 583.668 392.464 583.668C391.576 583.668 390.856 583.764 390.304 583.956C389.752 584.148 389.356 584.412 389.116 584.748C388.876 585.084 388.756 585.468 388.756 585.9C388.756 586.404 388.984 586.836 389.44 587.196C389.92 587.532 390.688 587.82 391.744 588.06L395.74 588.96C398.116 589.512 399.856 590.316 400.96 591.372C402.064 592.428 402.616 593.832 402.616 595.584C402.616 597.264 402.184 598.692 401.32 599.868C400.456 601.02 399.268 601.896 397.756 602.496C396.244 603.072 394.516 603.36 392.572 603.36C390.988 603.36 389.476 603.192 388.036 602.856C386.596 602.496 385.3 601.992 384.148 601.344C382.996 600.696 382.024 599.952 381.232 599.112L384.22 594.972C384.82 595.668 385.552 596.292 386.416 596.844C387.304 597.372 388.264 597.792 389.296 598.104C390.352 598.416 391.42 598.572 392.5 598.572C393.34 598.572 394.036 598.488 394.588 598.32C395.164 598.152 395.584 597.9 395.848 597.564C396.112 597.228 396.244 596.832 396.244 596.376C396.244 595.872 396.064 595.452 395.704 595.116C395.344 594.756 394.66 594.456 393.652 594.216L389.26 593.244C387.916 592.932 386.716 592.524 385.66 592.02C384.628 591.492 383.812 590.796 383.212 589.932C382.612 589.044 382.312 587.94 382.312 586.62C382.312 585.132 382.72 583.812 383.536 582.66C384.352 581.484 385.528 580.56 387.064 579.888C388.6 579.216 390.436 578.88 392.572 578.88ZM426.01 579.24V584.028H418.27V603H412.078V584.028H404.302V579.24H426.01ZM427.677 596.808C428.805 596.808 429.681 597.096 430.305 597.672C430.953 598.248 431.277 599.052 431.277 600.084C431.277 601.092 430.953 601.884 430.305 602.46C429.681 603.036 428.805 603.324 427.677 603.324C426.573 603.324 425.697 603.036 425.049 602.46C424.401 601.884 424.077 601.092 424.077 600.084C424.077 599.052 424.401 598.248 425.049 597.672C425.697 597.096 426.573 596.808 427.677 596.808ZM302.372 630.24L293.948 654H286.676L278.216 630.24H284.732L289.088 644.604L290.384 649.284L291.644 644.676L296.072 630.24H302.372ZM305.202 654V630.24H323.706V635.028H311.394V639.852H321.186V644.352H311.394V649.212H324.174V654H305.202ZM339.253 630.24C342.085 630.24 344.281 630.912 345.841 632.256C347.425 633.576 348.217 635.34 348.217 637.548C348.217 639.972 347.437 641.82 345.877 643.092C344.317 644.364 342.121 645 339.289 645L338.713 645.324H333.997V654H327.913V630.24H339.253ZM338.389 640.932C339.589 640.932 340.489 640.692 341.089 640.212C341.689 639.732 341.989 638.964 341.989 637.908C341.989 636.876 341.689 636.12 341.089 635.64C340.489 635.16 339.589 634.92 338.389 634.92H333.997V640.932H338.389ZM342.025 642.228L349.621 654H342.781L336.697 643.596L342.025 642.228ZM358.925 630.24V654H352.733V630.24H358.925ZM382.662 635.028H370.386V640.068H380.178V644.856H370.386V654H364.194V630.24H382.662V635.028ZM392.429 630.24V654H386.237V630.24H392.429ZM397.698 654V630.24H416.202V635.028H403.89V639.852H413.682V644.352H403.89V649.212H416.67V654H397.698ZM430.489 630.24C434.209 630.24 437.053 631.272 439.021 633.336C441.013 635.4 442.009 638.328 442.009 642.12C442.009 645.912 441.013 648.84 439.021 650.904C437.053 652.968 434.209 654 430.489 654H420.409V630.24H430.489ZM429.877 649.32C431.893 649.32 433.357 648.72 434.269 647.52C435.205 646.296 435.673 644.496 435.673 642.12C435.673 639.744 435.205 637.956 434.269 636.756C433.357 635.532 431.893 634.92 429.877 634.92H426.601V649.32H429.877ZM447.822 647.808C448.95 647.808 449.826 648.096 450.45 648.672C451.098 649.248 451.422 650.052 451.422 651.084C451.422 652.092 451.098 652.884 450.45 653.46C449.826 654.036 448.95 654.324 447.822 654.324C446.718 654.324 445.842 654.036 445.194 653.46C444.546 652.884 444.222 652.092 444.222 651.084C444.222 650.052 444.546 649.248 445.194 648.672C445.842 648.096 446.718 647.808 447.822 647.808Z" fill="#F8FAFC"/>
<defs>
<linearGradient id="paint0_linear_311_781" x1="-46.6455" y1="136.736" x2="125.419" y2="239.664" gradientUnits="userSpaceOnUse">
<stop stop-color="#1F2937"/>
<stop offset="1" stop-color="#D9D9D9" stop-opacity="0"/>
</linearGradient>
<linearGradient id="paint1_linear_311_781" x1="327.487" y1="344.687" x2="427.718" y2="466.404" gradientUnits="userSpaceOnUse">
<stop stop-color="#1F2937"/>
<stop offset="1" stop-color="#D9D9D9" stop-opacity="0"/>
</linearGradient>
<linearGradient id="paint2_linear_311_781" x1="102.659" y1="201.528" x2="76.5627" y2="357.028" gradientUnits="userSpaceOnUse">
<stop stop-color="#1F2937"/>
<stop offset="1" stop-color="#D9D9D9" stop-opacity="0"/>
</linearGradient>
<linearGradient id="paint3_linear_311_781" x1="17.8484" y1="4.00773" x2="175.319" y2="12.0339" gradientUnits="userSpaceOnUse">
<stop stop-color="#1F2937"/>
<stop offset="1" stop-color="#D9D9D9" stop-opacity="0"/>
</linearGradient>
<linearGradient id="paint4_linear_311_781" x1="214.558" y1="120.15" x2="142.667" y2="227.261" gradientUnits="userSpaceOnUse">
<stop stop-color="#1F2937"/>
<stop offset="1" stop-color="#D9D9D9" stop-opacity="0"/>
</linearGradient>
<linearGradient id="paint5_linear_311_781" x1="298.388" y1="166.201" x2="287.907" y2="267.647" gradientUnits="userSpaceOnUse">
<stop stop-color="#1F2937"/>
<stop offset="1" stop-color="#D9D9D9" stop-opacity="0"/>
</linearGradient>
<linearGradient id="paint6_linear_311_781" x1="89.5002" y1="298.494" x2="-39.4795" y2="300.784" gradientUnits="userSpaceOnUse">
<stop stop-color="#1F2937"/>
<stop offset="1" stop-color="#D9D9D9" stop-opacity="0"/>
</linearGradient>
<linearGradient id="paint7_linear_311_781" x1="227.241" y1="269.741" x2="228.598" y2="167.764" gradientUnits="userSpaceOnUse">
<stop stop-color="#1F2937"/>
<stop offset="1" stop-color="#D9D9D9" stop-opacity="0"/>
</linearGradient>
<linearGradient id="paint8_linear_311_781" x1="266.132" y1="48.6704" x2="185.621" y2="-13.9326" gradientUnits="userSpaceOnUse">
<stop stop-color="#1F2937"/>
<stop offset="1" stop-color="#D9D9D9" stop-opacity="0"/>
</linearGradient>
<linearGradient id="paint9_linear_311_781" x1="199.121" y1="36.3441" x2="23.9505" y2="133.892" gradientUnits="userSpaceOnUse">
<stop stop-color="#1F2937"/>
<stop offset="1" stop-color="#D9D9D9" stop-opacity="0"/>
</linearGradient>
<linearGradient id="paint10_linear_311_781" x1="303.637" y1="355.603" x2="110.754" y2="300.863" gradientUnits="userSpaceOnUse">
<stop stop-color="#1F2937"/>
<stop offset="1" stop-color="#D9D9D9" stop-opacity="0"/>
</linearGradient>
<linearGradient id="paint11_linear_311_781" x1="1292.81" y1="-0.0253906" x2="1292.81" y2="200.475" gradientUnits="userSpaceOnUse">
<stop stop-color="#1F2937"/>
<stop offset="1" stop-color="#D9D9D9" stop-opacity="0"/>
</linearGradient>
<linearGradient id="paint12_linear_311_781" x1="1243.31" y1="-25.0254" x2="1190.31" y2="123.475" gradientUnits="userSpaceOnUse">
<stop stop-color="#1F2937"/>
<stop offset="1" stop-color="#D9D9D9" stop-opacity="0"/>
</linearGradient>
<linearGradient id="paint13_linear_311_781" x1="1313.85" y1="161.366" x2="1167.01" y2="218.798" gradientUnits="userSpaceOnUse">
<stop stop-color="#1F2937"/>
<stop offset="1" stop-color="#D9D9D9" stop-opacity="0"/>
</linearGradient>
<linearGradient id="paint14_linear_311_781" x1="1439.82" y1="-12.8153" x2="1513.77" y2="126.442" gradientUnits="userSpaceOnUse">
<stop stop-color="#1F2937"/>
<stop offset="1" stop-color="#D9D9D9" stop-opacity="0"/>
</linearGradient>
<linearGradient id="paint15_linear_311_781" x1="1441.14" y1="215.619" x2="1312.31" y2="208.91" gradientUnits="userSpaceOnUse">
<stop stop-color="#1F2937"/>
<stop offset="1" stop-color="#D9D9D9" stop-opacity="0"/>
</linearGradient>
<linearGradient id="paint16_linear_311_781" x1="1444.65" y1="311.203" x2="1352.21" y2="354.286" gradientUnits="userSpaceOnUse">
<stop stop-color="#1F2937"/>
<stop offset="1" stop-color="#D9D9D9" stop-opacity="0"/>
</linearGradient>
<linearGradient id="paint17_linear_311_781" x1="1223.88" y1="199.855" x2="1155.71" y2="90.3426" gradientUnits="userSpaceOnUse">
<stop stop-color="#1F2937"/>
<stop offset="1" stop-color="#D9D9D9" stop-opacity="0"/>
</linearGradient>
<linearGradient id="paint18_linear_311_781" x1="1147.49" y1="257.405" x2="1059.28" y2="206.218" gradientUnits="userSpaceOnUse">
<stop stop-color="#1F2937"/>
<stop offset="1" stop-color="#D9D9D9" stop-opacity="0"/>
</linearGradient>
<linearGradient id="paint19_linear_311_781" x1="1147.92" y1="19.5671" x2="1236.13" y2="-31.6194" gradientUnits="userSpaceOnUse">
<stop stop-color="#1F2937"/>
<stop offset="1" stop-color="#D9D9D9" stop-opacity="0"/>
</linearGradient>
<linearGradient id="paint20_linear_311_781" x1="723.944" y1="178.58" x2="742.134" y2="253.097" gradientUnits="userSpaceOnUse">
<stop stop-color="#1F2937"/>
<stop offset="1" stop-color="#D9D9D9" stop-opacity="0"/>
</linearGradient>
<linearGradient id="paint21_linear_311_781" x1="949.796" y1="323.024" x2="962.189" y2="221.794" gradientUnits="userSpaceOnUse">
<stop stop-color="#1F2937"/>
<stop offset="1" stop-color="#D9D9D9" stop-opacity="0"/>
</linearGradient>
<linearGradient id="paint22_linear_311_781" x1="1506.91" y1="113.674" x2="1470.04" y2="310.755" gradientUnits="userSpaceOnUse">
<stop stop-color="#1F2937"/>
<stop offset="1" stop-color="#D9D9D9" stop-opacity="0"/>
</linearGradient>
<linearGradient id="paint23_linear_311_781" x1="1001.91" y1="221.781" x2="965.039" y2="24.6998" gradientUnits="userSpaceOnUse">
<stop stop-color="#1F2937"/>
<stop offset="1" stop-color="#D9D9D9" stop-opacity="0"/>
</linearGradient>
<linearGradient id="paint24_linear_311_781" x1="1505.13" y1="159.349" x2="1331.49" y2="59.099" gradientUnits="userSpaceOnUse">
<stop stop-color="#1F2937"/>
<stop offset="1" stop-color="#D9D9D9" stop-opacity="0"/>
</linearGradient>
<linearGradient id="paint25_linear_311_781" x1="1284.8" y1="412.94" x2="1232.76" y2="219.312" gradientUnits="userSpaceOnUse">
<stop stop-color="#1F2937"/>
<stop offset="1" stop-color="#D9D9D9" stop-opacity="0"/>
</linearGradient>
<linearGradient id="paint26_linear_311_781" x1="970.036" y1="238.207" x2="1042.76" y2="309.711" gradientUnits="userSpaceOnUse">
<stop stop-color="#1F2937"/>
<stop offset="1" stop-color="#D9D9D9" stop-opacity="0"/>
</linearGradient>
<linearGradient id="paint27_linear_311_781" x1="1102.25" y1="258.424" x2="1082.35" y2="358.45" gradientUnits="userSpaceOnUse">
<stop stop-color="#1F2937"/>
<stop offset="1" stop-color="#D9D9D9" stop-opacity="0"/>
</linearGradient>
<linearGradient id="paint28_linear_311_781" x1="908.162" y1="339.81" x2="1058.36" y2="472.624" gradientUnits="userSpaceOnUse">
<stop stop-color="#1F2937"/>
<stop offset="1" stop-color="#D9D9D9" stop-opacity="0"/>
</linearGradient>
<linearGradient id="paint29_linear_311_781" x1="1161.49" y1="93.5925" x2="1073.28" y2="42.406" gradientUnits="userSpaceOnUse">
<stop stop-color="#1F2937"/>
<stop offset="1" stop-color="#D9D9D9" stop-opacity="0"/>
</linearGradient>
<linearGradient id="paint30_linear_311_781" x1="915.097" y1="145.781" x2="878.227" y2="-51.3002" gradientUnits="userSpaceOnUse">
<stop stop-color="#1F2937"/>
<stop offset="1" stop-color="#D9D9D9" stop-opacity="0"/>
</linearGradient>
<linearGradient id="paint31_linear_311_781" x1="867.616" y1="76.4093" x2="844.135" y2="35.7377" gradientUnits="userSpaceOnUse">
<stop stop-color="#1F2937"/>
<stop offset="1" stop-color="#D9D9D9" stop-opacity="0"/>
</linearGradient>
<linearGradient id="paint32_linear_311_781" x1="896.473" y1="187.281" x2="897.228" y2="234.239" gradientUnits="userSpaceOnUse">
<stop stop-color="#1F2937"/>
<stop offset="1" stop-color="#D9D9D9" stop-opacity="0"/>
</linearGradient>
<linearGradient id="paint33_linear_311_781" x1="748.299" y1="342.084" x2="601.456" y2="399.517" gradientUnits="userSpaceOnUse">
<stop stop-color="#1F2937"/>
<stop offset="1" stop-color="#D9D9D9" stop-opacity="0"/>
</linearGradient>
<linearGradient id="paint34_linear_311_781" x1="1402.64" y1="303.525" x2="1302.05" y2="286.682" gradientUnits="userSpaceOnUse">
<stop stop-color="#1F2937"/>
<stop offset="1" stop-color="#D9D9D9" stop-opacity="0"/>
</linearGradient>
</defs>
</svg>