<svg width="398" height="376" viewBox="0 0 398 376" fill="none" xmlns="http://www.w3.org/2000/svg">
<mask id="mask0_3615_1788338" style="mask-type:alpha" maskUnits="userSpaceOnUse" x="0" y="0" width="398" height="376">
<rect width="398" height="376" fill="#D9D9D9"/>
</mask>
<g mask="url(#mask0_3615_1788338)">
<g opacity="0.3">
<path d="M281.089 330.486C232.293 361.181 165.649 308.37 134.653 273.229C105.368 240.026 138.117 206.205 158.141 201.892C189.115 192.506 205.372 191.255 207.875 181.243C225.146 133.936 262.955 176.865 283.918 201.895C324.279 272.293 300.487 318.284 281.089 330.486Z" fill="#FE5C4F"/>
<path d="M112.183 109.2C90.5434 136.418 23.9273 113.308 10.8202 103.606C-10.7862 87.6111 7.09173 63.5619 23.9343 56.6297C49.5683 44.1085 55.2006 40.3047 55.8454 33.1634C70.8796 -11.8832 104.623 10.6406 116.862 33.163C127.187 56.6296 124.187 94.0997 112.183 109.2Z" fill="#7FBCCE"/>
<ellipse cx="267.338" cy="64.3856" rx="7.6197" ry="9.87934" transform="rotate(-137.894 267.338 64.3856)" fill="#7FBCCE"/>
<path d="M111.93 67.0561C167.498 35.5179 213.303 56.7323 247.998 78.3199C265.867 91.4603 281.06 104.025 289.31 114.929C335.303 172.186 329.359 205.351 319.346 218.179C301.325 250.468 247.384 229.755 222.667 215.363C168.226 195.651 150.392 238.829 150.392 241.645C133.496 295.147 99.7055 282.945 97.8283 284.822C54.2755 278.815 42.1343 234.136 41.5078 212.547C35.876 113.99 108.176 67.0561 111.93 67.0561Z" fill="#F9A9B4"/>
<ellipse cx="146.963" cy="344.644" rx="30.8041" ry="24.0532" transform="rotate(112.37 146.963 344.644)" fill="#FF71DB"/>
<ellipse cx="377.132" cy="190.744" rx="25.264" ry="17.6473" transform="rotate(-59.0278 377.132 190.744)" fill="#7FBCCE"/>
<path d="M75.3435 316.732C-8.00742 274.681 9.31084 207.222 31.2124 174.057C56.5524 144.021 85.0417 133.697 97.8676 129.942C125.777 121.771 130.157 88.2262 135.163 70.7046C145.676 40.6682 157.315 29.5076 167.327 21.9989C195.861 -8.78838 259.626 9.17183 285.595 21.9999C349.422 56.5417 318.76 106.789 297.797 129.942C277.147 155.285 272.454 199.715 271.515 220.991C271.515 267.921 256.81 293.892 247.111 305.468C207.438 349.48 117.579 336.441 75.3435 316.732Z" stroke="#1D4ED8" stroke-width="4"/>
<path d="M157.519 31.2961C155.11 26.4005 156.871 15.4401 162.618 12.612C168.366 9.78393 175.924 16.1591 178.333 21.0548C180.741 25.9505 175.881 35.1285 170.133 37.9565C164.385 40.7846 159.927 36.1918 157.519 31.2961Z" fill="#FF71DB"/>
</g>
</g>
</svg>
