<svg width="106" height="52" viewBox="0 0 106 52" fill="none" xmlns="http://www.w3.org/2000/svg">
<g clip-path="url(#clip0_3467_91852)">
<path d="M33.9376 2.21596C35.2006 0.520046 37.7409 0.520042 39.0038 2.21596L71.252 45.5197C72.8036 47.6031 71.3166 50.5645 68.7189 50.5645H4.22247C1.62481 50.5645 0.137849 47.6031 1.68937 45.5197L33.9376 2.21596Z" fill="#4F46E5"/>
<path d="M66.4036 10.6697C67.6636 8.9117 70.2778 8.9117 71.5378 10.6697L96.5654 45.5897C98.0632 47.6796 96.5695 50.5879 93.9983 50.5879H43.9431C41.3719 50.5879 39.8782 47.6796 41.376 45.5897L66.4036 10.6697Z" fill="#4F46E5"/>
<path d="M15.5639 49.0673V32.0273H18.5159L18.7319 35.8433L18.3239 35.4113C18.4679 34.7073 18.7319 34.0833 19.1159 33.5393C19.5159 32.9953 20.0199 32.5713 20.6279 32.2673C21.2359 31.9473 21.9159 31.7873 22.6679 31.7873C23.6439 31.7873 24.5159 32.0353 25.2839 32.5313C26.0519 33.0273 26.6519 33.7393 27.0839 34.6673C27.5319 35.5793 27.7559 36.6913 27.7559 38.0033C27.7559 39.3153 27.5319 40.4433 27.0839 41.3873C26.6359 42.3153 26.0199 43.0273 25.2359 43.5233C24.4679 44.0193 23.5879 44.2673 22.5959 44.2673C21.5399 44.2673 20.6599 43.9713 19.9559 43.3793C19.2679 42.7873 18.7959 42.0433 18.5399 41.1473L18.8519 40.6433V49.0673H15.5639ZM21.6359 41.7473C22.5159 41.7473 23.2039 41.4353 23.6999 40.8113C24.2119 40.1713 24.4679 39.2433 24.4679 38.0273C24.4679 36.8113 24.2199 35.8913 23.7239 35.2673C23.2439 34.6273 22.5639 34.3073 21.6839 34.3073C21.1239 34.3073 20.6279 34.4593 20.1959 34.7633C19.7799 35.0513 19.4519 35.4753 19.2119 36.0353C18.9719 36.5793 18.8519 37.2433 18.8519 38.0273C18.8519 38.7953 18.9639 39.4593 19.1879 40.0193C19.4119 40.5793 19.7319 41.0113 20.1479 41.3153C20.5799 41.6033 21.0759 41.7473 21.6359 41.7473ZM36.1788 44.2673C34.9148 44.2673 33.8108 44.0193 32.8668 43.5233C31.9388 43.0273 31.2188 42.3153 30.7068 41.3873C30.1948 40.4593 29.9388 39.3393 29.9388 38.0273C29.9388 36.7153 30.1948 35.5953 30.7068 34.6673C31.2188 33.7393 31.9308 33.0273 32.8428 32.5313C33.7708 32.0353 34.8268 31.7873 36.0108 31.7873C37.2268 31.7873 38.2588 32.0353 39.1068 32.5313C39.9548 33.0113 40.6028 33.6753 41.0508 34.5233C41.4988 35.3553 41.7228 36.3073 41.7228 37.3793C41.7228 37.6993 41.7148 38.0033 41.6988 38.2913C41.6828 38.5793 41.6588 38.8353 41.6268 39.0593H32.0508V36.7793H40.1868L38.6028 37.3553C38.6028 36.3473 38.3708 35.5713 37.9068 35.0273C37.4588 34.4833 36.8188 34.2113 35.9868 34.2113C35.3788 34.2113 34.8508 34.3553 34.4028 34.6433C33.9708 34.9313 33.6428 35.3633 33.4188 35.9393C33.1948 36.4993 33.0828 37.2113 33.0828 38.0753C33.0828 38.9233 33.2028 39.6273 33.4428 40.1873C33.6988 40.7313 34.0508 41.1393 34.4988 41.4113C34.9628 41.6833 35.5148 41.8193 36.1548 41.8193C36.8588 41.8193 37.4268 41.6833 37.8588 41.4113C38.2908 41.1393 38.6268 40.7633 38.8668 40.2833L41.4828 41.2913C41.2268 41.9153 40.8348 42.4513 40.3068 42.8993C39.7948 43.3473 39.1788 43.6913 38.4588 43.9313C37.7548 44.1553 36.9948 44.2673 36.1788 44.2673ZM51.3493 36.3713C51.3493 35.6833 51.1493 35.1473 50.7493 34.7633C50.3653 34.3793 49.8533 34.1873 49.2133 34.1873C48.6213 34.1873 48.1013 34.3393 47.6533 34.6433C47.2053 34.9473 46.8773 35.4513 46.6693 36.1553L43.8613 35.2913C44.1333 34.2353 44.7253 33.3873 45.6373 32.7473C46.5653 32.1073 47.8053 31.7873 49.3573 31.7873C50.4133 31.7873 51.3333 31.9553 52.1173 32.2913C52.9013 32.6113 53.5093 33.0993 53.9413 33.7553C54.3893 34.4113 54.6133 35.2353 54.6133 36.2273V41.0993C54.6133 41.7073 54.9013 42.0113 55.4773 42.0113C55.7493 42.0113 56.0053 41.9713 56.2453 41.8913L56.0533 43.9313C55.6373 44.1393 55.1173 44.2433 54.4933 44.2433C53.9333 44.2433 53.4293 44.1473 52.9813 43.9553C52.5333 43.7633 52.1813 43.4753 51.9253 43.0913C51.6693 42.6913 51.5413 42.1953 51.5413 41.6033V41.5073L52.1173 41.4113C52.0213 42.0193 51.7573 42.5393 51.3253 42.9713C50.8933 43.3873 50.3653 43.7073 49.7413 43.9313C49.1333 44.1553 48.5013 44.2673 47.8453 44.2673C47.0293 44.2673 46.3253 44.1473 45.7333 43.9073C45.1413 43.6513 44.6853 43.2833 44.3652 42.8033C44.0453 42.3233 43.8853 41.7313 43.8853 41.0273C43.8853 40.1313 44.1733 39.4033 44.7493 38.8433C45.3253 38.2673 46.1493 37.8753 47.2213 37.6673L51.7333 36.7553L51.7093 38.7953L48.8293 39.3713C48.2853 39.4833 47.8693 39.6353 47.5813 39.8273C47.3093 40.0033 47.1733 40.2993 47.1733 40.7153C47.1733 41.1153 47.3173 41.4193 47.6053 41.6273C47.9093 41.8353 48.2693 41.9393 48.6853 41.9393C49.0213 41.9393 49.3493 41.8993 49.6693 41.8193C49.9893 41.7393 50.2773 41.6113 50.5333 41.4353C50.7893 41.2593 50.9893 41.0193 51.1333 40.7153C51.2773 40.4113 51.3493 40.0433 51.3493 39.6113V36.3713ZM70.5065 32.0273L64.9625 37.8113L64.3145 38.1233L60.7145 41.9873L60.6665 38.4833L66.7625 32.0273H70.5065ZM61.5785 26.7713V44.0273H58.2905V26.7713H61.5785ZM65.4185 35.8433L70.7945 44.0273H67.0745L63.1625 37.7633L65.4185 35.8433Z" fill="white"/>
<path d="M94.5 18L104 24V43.5H94.5M94.5 18V8L83.5 2V25M94.5 18V43.5M83.5 25L74 30.5V43.5H78H83.5M83.5 25V43.5M83.5 43.5H94.5" stroke="black" stroke-width="1.75" stroke-linejoin="round"/>
<path d="M97.4219 23.4453V40.6546" stroke="black" stroke-width="1.4356" stroke-linecap="round" stroke-linejoin="round"/>
<path d="M80.2598 30.8203V40.6542" stroke="black" stroke-width="1.4356" stroke-linecap="round" stroke-linejoin="round"/>
<path d="M87.3574 9V40.6528" stroke="black" stroke-width="1.4356" stroke-linecap="round" stroke-linejoin="round"/>
<path d="M100.678 26.8262V40.6551" stroke="black" stroke-width="1.4356" stroke-linecap="round" stroke-linejoin="round"/>
<path d="M77 32.6641V40.6541" stroke="black" stroke-width="1.4356" stroke-linecap="round" stroke-linejoin="round"/>
<path d="M90.6172 12.0742V40.654" stroke="black" stroke-width="1.4356" stroke-linecap="round" stroke-linejoin="round"/>
</g>
<defs>
<clipPath id="clip0_3467_91852">
<rect width="106" height="52" fill="white"/>
</clipPath>
</defs>
</svg>
