<svg width="495" height="448" viewBox="0 0 495 448" fill="none" xmlns="http://www.w3.org/2000/svg">
<mask id="mask0_3715_123718" style="mask-type:alpha" maskUnits="userSpaceOnUse" x="0" y="0" width="495" height="448">
<rect width="495" height="448" fill="#D9D9D9"/>
</mask>
<g mask="url(#mask0_3715_123718)">
<g opacity="0.3">
<path d="M327.244 -40.5794C223.974 -27.3422 208.012 0.215551 153.63 44.1524C125.38 66.9766 80.6826 133.653 75.4382 152.935C43.92 256.503 45.8547 299.379 75.4382 320.538C120.169 357.95 178.356 332.846 200.667 299.379C238.324 242.893 268.659 234.525 298.993 248.123C358.818 292.884 368.077 306.695 414.056 286.826C475.109 242.315 477.36 99.0063 464.32 74.4778C416.405 -27.5095 385.86 -40.5813 327.244 -40.5794Z" fill="#F9A9B4"/>
<ellipse cx="429.789" cy="138.284" rx="116.109" ry="150.628" fill="#7FBCCE"/>
<path d="M311.592 429.08C203.852 486.612 61.2435 387.936 21.8432 326.569C-12.4665 278.033 15.2183 248.464 33.3495 239.747C62.6378 225.666 86.6692 255.302 95.0647 269.039C106.571 287.867 135.86 299.374 142.136 302.512C170.379 310.88 201.062 305.651 223.726 295.19C292.764 273.223 331.119 296.929 342.974 317.152C377.283 372.382 334.605 419.666 311.592 429.08Z" fill="#AD7DFE"/>
<path d="M85.5451 42.3162C99.3413 34.3509 131.873 37.8105 141.484 54.457C151.095 71.1036 134.145 94.6334 120.349 102.599C106.553 110.564 78.5332 97.5894 68.9224 80.9429C59.3115 64.2963 71.7488 50.2814 85.5451 42.3162Z" fill="#7FBCCE"/>
<path d="M150.693 -21.8942C154.319 -17.509 154.307 -5.2409 148.287 -0.262366C142.267 4.71617 132.52 0.519899 128.893 -3.86534C125.266 -8.25057 129.125 -19.6834 135.145 -24.6619C141.165 -29.6404 147.066 -26.2794 150.693 -21.8942Z" fill="#DDF77D"/>
<ellipse cx="417.678" cy="364.586" rx="31.8522" ry="26.9626" transform="rotate(112.37 417.678 364.586)" fill="#DDF77D"/>
<ellipse cx="398.242" cy="308.208" rx="16.6983" ry="11.6574" transform="rotate(-4.8113 398.242 308.208)" fill="#DDF77D"/>
<path d="M101.342 243.938C25.1908 112.557 58.4545 19.7392 84.6052 -10.2469C127.481 -59.4132 192.694 -55.5748 219.541 -53.134C355.525 -40.7715 422.819 48.3306 447.575 98.5399C506.884 218.828 420.03 323.436 359.709 357.955C252.596 433.269 142.834 313.324 101.342 243.938Z" stroke="#1D4ED8" stroke-width="5"/>
</g>
</g>
</svg>
