<svg width="16" height="16" viewBox="0 0 16 16" fill="none" xmlns="http://www.w3.org/2000/svg">
<mask id="mask0_3723_123832" style="mask-type:alpha" maskUnits="userSpaceOnUse" x="0" y="0" width="16" height="16">
<rect width="16" height="16" rx="1.23077" fill="#D9D9D9"/>
</mask>
<g mask="url(#mask0_3723_123832)">
<rect x="-0.0234375" width="16" height="16" rx="1.23077" fill="white"/>
<path d="M5.19298 2.17685C5.40761 1.68387 6.10681 1.68387 6.32144 2.17685L11.1666 13.3058C11.3436 13.7123 11.0457 14.1669 10.6024 14.1669H0.912047C0.468737 14.1669 0.170857 13.7123 0.347816 13.3058L5.19298 2.17685Z" fill="#4F46E5"/>
<path d="M9.11167 5.83031C9.3261 5.33676 10.0261 5.33676 10.2405 5.83031L13.4939 13.3183C13.6704 13.7247 13.3726 14.1789 12.9294 14.1789H6.42272C5.97961 14.1789 5.68173 13.7247 5.85831 13.3183L9.11167 5.83031Z" fill="#4F46E5"/>
<path d="M13.3373 7.55885L15.3834 8.89342V13.2308H13.3373M13.3373 7.55885V5.33457L10.968 4V9.11585M13.3373 7.55885V13.2308M10.968 9.11585L8.92188 10.3392V13.2308H9.78341H10.968M10.968 9.11585V13.2308M10.968 13.2308H13.3373" stroke="black" stroke-width="0.615385" stroke-linejoin="round"/>
</g>
</svg>
